<?xml version="1.0" encoding="utf-8"?>
<svg width="800px" height="800px" viewBox="0 0 1024 1024" class="icon" version="1.1" xmlns="http://www.w3.org/2000/svg" xmlns:bx="https://boxy-svg.com">
  <path d="M512 960c-92.8 0-160-200-160-448S419.2 64 512 64s160 200 160 448-67.2 448-160 448z m0-32c65.6 0 128-185.6 128-416S577.6 96 512 96s-128 185.6-128 416 62.4 416 128 416z" style="" id="object-0"/>
  <path d="M124.8 736c-48-80 92.8-238.4 307.2-363.2S852.8 208 899.2 288 806.4 526.4 592 651.2 171.2 816 124.8 736z m27.2-16c33.6 57.6 225.6 17.6 424-97.6S905.6 361.6 872 304 646.4 286.4 448 401.6 118.4 662.4 152 720z" style=""/>
  <path d="M899.2 736c-46.4 80-254.4 38.4-467.2-84.8S76.8 368 124.8 288s254.4-38.4 467.2 84.8S947.2 656 899.2 736z m-27.2-16c33.6-57.6-97.6-203.2-296-318.4S184 246.4 152 304 249.6 507.2 448 622.4s392 155.2 424 97.6z" style=""/>
  <text style="fill: url(&quot;#color-2-0&quot;); font-family: &quot;Abril Fatface&quot;; font-size: 150px; font-weight: 700; paint-order: fill; stroke: rgb(0, 0, 0); stroke-width: 0px; white-space: pre;" transform="matrix(1.399358, 0, 0, 1.143197, -209.412292, -63.448654)" x="466.934" y="560.683">∅</text>
  <defs>
    <style bx:fonts="Abril Fatface">@import url(https://fonts.googleapis.com/css2?family=Abril+Fatface%3Aital%2Cwght%400%2C400&amp;display=swap);</style>
    <linearGradient id="gradient-1" bx:pinned="true"/>
    <linearGradient bx:pinned="true" id="color-0">
      <stop style="stop-color: #bdc3c7;" offset="0"/>
      <stop style="stop-color: #2c3e50;" offset="1"/>
    </linearGradient>
    <linearGradient bx:pinned="true" id="color-1">
      <stop style="stop-color: #373b44;" offset="0"/>
      <stop style="stop-color: #4286f4;" offset="1"/>
    </linearGradient>
    <linearGradient bx:pinned="true" id="color-2">
      <stop style="stop-color: #c31432;" offset="0"/>
      <stop style="stop-color: #240b36;" offset="1"/>
    </linearGradient>
    <linearGradient id="color-2-0" href="#color-2" gradientUnits="userSpaceOnUse" x1="515.53" y1="401.936" x2="515.53" y2="604.42"/>
    <linearGradient id="color-1-0" href="#color-1" gradientUnits="userSpaceOnUse" x1="515.99" y1="402.532" x2="515.99" y2="604.614"/>
    <linearGradient id="color-1-1" href="#color-1" gradientUnits="userSpaceOnUse" x1="518.164" y1="402.532" x2="518.164" y2="604.614"/>
    <linearGradient id="color-1-2" href="#color-1" gradientUnits="userSpaceOnUse" x1="518.69" y1="402.532" x2="518.69" y2="604.614"/>
    <bx:export>
      <bx:file format="png" href="#object-0"/>
      <bx:file format="png" path="Untitled 2.png" excluded="true"/>
      <bx:file format="png" path="Untitled 3.png" excluded="true"/>
      <bx:file format="png" path="Untitled 4.png"/>
    </bx:export>
  </defs>
  <text style="fill: url(&quot;#color-1-0&quot;); font-family: &quot;Abril Fatface&quot;; font-size: 150px; font-weight: 700; paint-order: fill; stroke: rgb(0, 0, 0); white-space: pre;" transform="matrix(0.898082, 0, 0, 0.809348, -200.516327, 245.891495)"><tspan x="466.934" y="560.683">B</tspan><tspan x="466.934" dy="1em">​</tspan></text>
  <text style="fill: url(&quot;#color-1-1&quot;); font-family: &quot;Abril Fatface&quot;; font-size: 150px; font-weight: 700; paint-order: fill; stroke: rgb(0, 0, 0); white-space: pre;" transform="matrix(0.898082, 0, 0, 0.809348, 48.598591, 410.855347)"><tspan x="466.934" y="560.683">T</tspan><tspan x="466.934" dy="1em">​</tspan></text>
  <text style="fill: url(&quot;#color-1-2&quot;); font-family: &quot;Abril Fatface&quot;; font-size: 150px; font-weight: 700; paint-order: fill; stroke: rgb(0, 0, 0); stroke-width: 1.17135px; white-space: pre;" transform="matrix(0.898082, 0, 0, 0.809348, 295.761383, 243.10965)"><tspan x="466.934" y="560.683">C</tspan><tspan x="466.934" dy="1em">​</tspan></text>
</svg>