<?xml version="1.0" encoding="utf-8"?>
<svg xmlns="http://www.w3.org/2000/svg" fill="none" height="400" viewBox="0 0 1325 400" width="1325">
  <g fill="white">
    <g clip-rule="evenodd" fill-rule="evenodd">
      <path d="m75.3546 270.605c4.0533 12.74 15.9157 21.395 29.3224 21.395h66.646c13.407 0 25.269-8.655 29.322-21.395l20.839-65.494h12.812c13.406 0 25.269-8.655 29.322-21.395l12.382-38.916h-46.444l24.496-36.8h-116.052-116.0523l24.4962 36.8h-46.44391796l12.38221796 38.916c4.0533 12.74 15.9157 21.395 29.322 21.395h12.8119zm30.1054-65.494c-9.1276 0-16.5267-8.009-16.5267-17.889s7.3991-17.889 16.5267-17.889c9.127 0 16.526 8.009 16.526 17.889s-7.399 17.889-16.526 17.889zm65.081 0c9.127 0 16.526-8.009 16.526-17.889s-7.399-17.889-16.526-17.889c-9.128 0-16.527 8.009-16.527 17.889s7.399 17.889 16.527 17.889z"/>
      <path d="m1252.03 168.504h-27.36v141.723h27.36v-53.736c3.41 4.461 7.61 8.07 12.6 10.826 5.11 2.624 10.49 3.936 16.14 3.936 7.87 0 15.15-2.165 21.85-6.495 6.82-4.462 12.2-10.629 16.14-18.503 3.93-8.005 5.9-16.993 5.9-26.967 0-9.973-1.97-18.896-5.9-26.769-3.94-8.005-9.32-14.173-16.14-18.503-6.7-4.462-13.98-6.693-21.85-6.693-6.04 0-11.55 1.181-16.54 3.543-4.98 2.363-9.05 6.102-12.2 11.22zm11.22 29.329c3.41-2.231 7.21-3.346 11.41-3.346 4.07 0 7.88 1.115 11.42 3.346s6.3 5.249 8.27 9.055c2.1 3.805 3.15 7.939 3.15 12.4 0 4.462-1.05 8.596-3.15 12.401-1.97 3.806-4.73 6.824-8.27 9.055s-7.35 3.346-11.42 3.346c-4.2 0-8-1.115-11.41-3.346s-6.17-5.249-8.27-9.055c-1.97-3.805-2.95-7.939-2.95-12.401 0-4.461.98-8.595 2.95-12.4 2.1-3.806 4.86-6.824 8.27-9.055z"/>
      <path d="m1154.86 167.323c10.1 0 18.43 1.706 24.99 5.118 6.7 3.281 11.68 8.071 14.96 14.369 3.28 6.299 4.93 13.845 4.93 22.637v60.625h-26.58v-10.432c-2.49 2.887-6.56 5.577-12.2 8.07-5.51 2.362-11.16 3.543-16.93 3.543-7.35 0-13.65-1.377-18.9-4.133-5.11-2.756-8.99-6.43-11.61-11.023s-3.94-9.579-3.94-14.96c0-9.841 3.61-17.518 10.83-23.03 7.22-5.511 18.37-8.267 33.46-8.267h19.29v-4.527c0-5.511-1.77-9.514-5.31-12.007-3.55-2.625-7.61-3.871-12.21-3.74-4.06.131-7.67 1.378-10.82 3.74-3.15 2.231-4.92 5.511-5.32 9.842h-27.75c.52-6.561 2.56-12.532 6.1-17.912 3.54-5.512 8.46-9.842 14.76-12.992 6.3-3.28 13.72-4.921 22.25-4.921zm5.9 82.278c3.28-1.443 5.97-3.805 8.07-7.086 2.1-3.412 3.15-7.742 3.15-12.991v-1.181l-16.34.197c-5.11.131-9.44 1.181-12.99 3.149-3.41 1.837-5.12 4.724-5.12 8.661 0 3.543 1.05 6.364 3.15 8.464 2.1 1.968 5.25 2.953 9.45 2.953 3.81 0 7.35-.722 10.63-2.166z"/>
    </g>
    <path d="m1105.69 168.504h-27.56l-12.2 40.352-.79 2.362c-.26.787-.52 1.509-.79 2.165-2.49 8.661-4.19 15.222-5.11 19.684h-.2c-2.23-7.48-4.59-15.156-7.09-23.03l-.39-1.181-13.19-40.352h-25.39l-13.188 40.352c-.263 1.05-.591 2.1-.985 3.149-.393.919-.787 1.903-1.181 2.953-2.493 8.53-4.199 14.566-5.117 18.109h-.197c-2.231-8.792-4.462-16.862-6.693-24.211l-12.4-40.352h-27.558l33.659 101.568h25.39l13.39-41.729c.26-.656.46-1.378.59-2.165.26-.788.52-1.509.79-2.165 2.23-7.087 4.19-13.582 5.9-19.487h.19c.3 1.012 2.54 8.098 6.7 21.258l.98 2.559 13.39 41.729h25.59z"/>
    <path d="m864.764 220.076c0 5.249 1.05 9.776 3.15 13.581 2.231 3.675 5.249 6.496 9.054 8.464 3.806 1.969 8.202 2.953 13.188 2.953 4.462 0 8.202-.787 11.22-2.362s5.315-3.609 6.889-6.102c1.575-2.493 2.362-5.118 2.362-7.874 0-3.936-1.377-7.348-4.133-10.235-2.756-3.018-6.758-5.118-12.007-6.299l-16.338-4.133c-11.548-2.756-20.602-7.611-27.163-14.566-6.562-7.087-9.842-15.485-9.842-25.196 0-8.004 2.231-15.09 6.692-21.258 4.462-6.299 10.302-11.154 17.519-14.566 7.217-3.543 15.025-5.315 23.424-5.315 8.923 0 16.796 2.1 23.62 6.299 6.955 4.068 12.269 9.58 15.944 16.535 3.805 6.955 5.708 14.631 5.708 23.03h-26.967c0-5.774-1.837-10.498-5.511-14.173-3.543-3.805-8.202-5.708-13.976-5.708-3.805 0-7.151.787-10.038 2.362-2.756 1.444-4.856 3.346-6.299 5.708-1.444 2.231-2.165 4.593-2.165 7.086 0 3.15 1.049 5.971 3.149 8.464 2.1 2.362 5.512 4.134 10.236 5.315l15.944 3.937c13.516 3.412 23.62 8.595 30.312 15.55 6.693 6.824 10.039 15.747 10.039 26.77 0 8.398-2.099 15.878-6.299 22.439-4.068 6.43-9.776 11.482-17.125 15.157-7.348 3.543-15.681 5.314-24.998 5.314-9.71 0-18.634-2.099-26.77-6.298-8.004-4.2-14.435-10.17-19.29-17.913-4.724-7.742-7.086-16.731-7.086-26.966z"/>
    <path d="m730.581 270.072 38.777-141.722h-27.951l-19.093 72.829c-1.443 5.774-2.821 11.811-4.133 18.109-.394 1.575-.722 3.084-.985 4.528l-.787 3.936h-.197c-1.575-6.823-2.952-12.597-4.133-17.321l-1.181-4.724c-.394-1.575-.788-3.084-1.181-4.528l-19.684-72.829h-28.148l-19.487 72.829c-.393 1.706-.853 3.478-1.378 5.315-.393 1.706-.853 3.477-1.377 5.314-.657 2.887-1.313 5.709-1.969 8.464-.656 2.625-1.247 5.118-1.771 7.48h-.197c-.263-2.099-.656-4.265-1.181-6.495-.525-2.231-1.05-4.528-1.575-6.89s-1.05-4.658-1.575-6.889-1.049-4.33-1.574-6.299l-19.29-72.829h-27.951l38.777 141.722h28.147l19.487-72.829c.656-2.231 1.247-4.528 1.772-6.89l1.968-7.48c.525-2.362 1.05-4.658 1.575-6.889.656-2.362 1.246-4.527 1.771-6.496h.197c.525 2.1 1.05 4.331 1.575 6.693l1.575 7.086c.656 2.493 1.246 4.921 1.771 7.283.656 2.362 1.247 4.593 1.772 6.693l19.487 72.829z"/>
    <path clip-rule="evenodd" d="m533.905 271.253c-9.185 0-17.649-2.296-25.391-6.889-7.743-4.724-13.91-11.023-18.503-18.896-4.462-8.005-6.693-16.731-6.693-26.18 0-9.448 2.231-18.109 6.693-25.982 4.593-8.005 10.76-14.304 18.503-18.896 7.742-4.725 16.206-7.087 25.391-7.087h.197c9.186 0 17.584 2.362 25.196 7.087 7.742 4.592 13.844 10.891 18.305 18.896 4.593 8.005 6.89 16.665 6.89 25.982s-2.297 17.978-6.89 25.983c-4.461 8.005-10.563 14.369-18.305 19.093-7.612 4.593-16.01 6.889-25.196 6.889zm.197-27.163c4.2 0 8.071-1.115 11.614-3.346s6.299-5.184 8.267-8.858c2.1-3.805 3.149-8.005 3.149-12.598 0-4.461-1.049-8.595-3.149-12.4-2.1-3.806-4.921-6.824-8.464-9.055s-7.349-3.346-11.417-3.346h-.197c-4.33 0-8.267 1.115-11.81 3.346s-6.364 5.249-8.464 9.055c-2.099 3.805-3.149 7.939-3.149 12.4 0 4.462 1.05 8.596 3.149 12.401 2.1 3.806 4.921 6.824 8.464 9.055s7.48 3.346 11.81 3.346z" fill-rule="evenodd"/>
    <path d="m369.583 261.608c11.023 6.43 23.03 9.645 36.022 9.645 11.416 0 21.652-2.362 30.706-7.086 9.186-4.855 16.535-11.154 22.046-18.896 5.511-7.874 8.989-16.338 10.432-25.392h-28.147c-2.362 7.48-6.758 13.385-13.188 17.715-6.43 4.331-13.713 6.496-21.849 6.496s-15.616-2.034-22.44-6.102c-6.692-4.068-12.072-9.514-16.14-16.338-4.068-6.823-6.102-14.303-6.102-22.439s2.034-15.616 6.102-22.44c4.068-6.823 9.448-12.269 16.14-16.337 6.824-4.068 14.304-6.102 22.44-6.102 5.117 0 10.104 1.115 14.959 3.346 4.856 2.1 9.055 5.052 12.598 8.858 3.543 3.805 5.905 8.07 7.086 12.794h28.345c-1.444-8.398-4.921-16.6-10.433-24.604-5.38-8.005-12.597-14.566-21.652-19.684-9.054-5.249-19.356-7.874-30.903-7.874-12.992 0-24.999 3.281-36.022 9.842-10.891 6.43-19.618 15.157-26.179 26.18-6.43 11.023-9.645 23.03-9.645 36.021s3.215 24.998 9.645 36.021c6.561 11.023 15.288 19.815 26.179 26.376z"/>
  </g>
</svg>