<?xml version="1.0" encoding="utf-8"?>
<!-- Generator: Adobe Illustrator 23.0.5, SVG Export Plug-In . SVG Version: 6.00 Build 0)  -->
<svg version="1.1" id="Layer_1" xmlns="http://www.w3.org/2000/svg" xmlns:xlink="http://www.w3.org/1999/xlink" x="0px" y="0px"
	 viewBox="0 0 3196.3 516" style="enable-background:new 0 0 3196.3 516;" xml:space="preserve">
<style type="text/css">
	.st0{fill:#FFFFFF;}
	.st1{fill-rule:evenodd;clip-rule:evenodd;fill:#FFFFFF;}
	.st2{enable-background:new    ;}
</style>
<g id="CryptoRoyaleLogo">
	<g id="roycon">
		<path class="st0" d="M191.1,271.2c-3.9,3.9-3.9,10.2,0,14.1l60.1,60.1c3.9,3.9,10.2,3.9,14.1,0l60.1-60.1c3.9-3.9,3.9-10.2,0-14.1
			l-60.1-60.1c-3.9-3.9-10.2-3.9-14.1,0L191.1,271.2z"/>
		<path class="st1" d="M516,258c0,142.5-115.5,258-258,258S0,400.5,0,258S115.5,0,258,0S516,115.5,516,258z M247.3,108.9
			L247.3,108.9c2.9-2.7,5.1-4.7,10.2-4.9c5.1,0.1,7.3,2.2,10.2,4.9l0,0c0.6,0.5,1.1,1.1,1.8,1.6c4,3.5,90.5,89.5,90.5,89.5l65.5-24
			c5.3-1.7,16.1-1.5,16.5,8.5S422.5,316,412,360c-2.6,11.1-9.5,18.3-22,26c-22,13.6-46.1,17.9-55.7,19.7c-0.7,0.1-1.3,0.2-1.8,0.3
			c-8,1.5-58,5-75.5,5s-66.5-3.5-74.5-5c-0.5-0.1-1.1-0.2-1.8-0.3c-9.6-1.7-33.7-6.1-55.7-19.7c-12.5-7.7-19.4-14.9-22-26
			c-10.5-44-30.4-165.5-30-175.5s11.2-10.2,16.5-8.5l65.5,24c0,0,86.5-86,90.5-89.5C246.1,109.9,246.7,109.4,247.3,108.9z"/>
	</g>
</g>
<g class="st2">
	<path class="st0" d="M631.9,194.2c10.7-18.7,25.3-33.3,43.8-43.8c18.5-10.5,39.3-15.7,62.3-15.7c26.9,0,50.5,6.9,70.7,20.7
		c20.2,13.8,34.4,32.9,42.4,57.3h-55.5c-5.5-11.5-13.3-20.1-23.3-25.9c-10-5.7-21.6-8.6-34.7-8.6c-14,0-26.5,3.3-37.4,9.8
		c-10.9,6.6-19.4,15.8-25.5,27.8c-6.1,12-9.1,26-9.1,42.1c0,15.9,3,29.8,9.1,41.9c6.1,12.1,14.6,21.4,25.5,27.9
		c10.9,6.6,23.4,9.8,37.4,9.8c13.1,0,24.7-2.9,34.7-8.8c10-5.9,17.8-14.5,23.3-26h55.5c-8.1,24.6-22.1,43.8-42.3,57.4
		c-20.1,13.7-43.8,20.5-70.9,20.5c-23,0-43.8-5.2-62.3-15.7c-18.5-10.5-33.1-25-43.8-43.6c-10.7-18.6-16-39.8-16-63.5
		C615.8,234.2,621.2,213,631.9,194.2z"/>
	<path class="st0" d="M1007.1,378.6L954,284.8h-22.8v93.8h-48.3V137.8h90.4c18.6,0,34.5,3.3,47.6,9.8c13.1,6.6,22.9,15.4,29.5,26.6
		c6.6,11.2,9.8,23.6,9.8,37.4c0,15.9-4.6,30.2-13.8,43c-9.2,12.8-22.9,21.6-41.1,26.4l57.6,97.6H1007.1z M931.2,248.6h40.4
		c13.1,0,22.9-3.2,29.3-9.5c6.4-6.3,9.7-15.1,9.7-26.4c0-11-3.2-19.6-9.7-25.7c-6.4-6.1-16.2-9.1-29.3-9.1h-40.4V248.6z"/>
	<path class="st0" d="M1276.1,137.8l-81.4,157v83.8h-48.3v-83.8l-81.8-157h54.5l51.8,110.1l51.4-110.1H1276.1z"/>
	<path class="st0" d="M1462.4,248.6c-6.1,11.3-15.6,20.4-28.6,27.3c-13,6.9-29.4,10.3-49.2,10.3h-40.4v92.5h-48.3V137.8h88.7
		c18.6,0,34.5,3.2,47.6,9.7c13.1,6.4,22.9,15.3,29.5,26.6c6.6,11.3,9.8,24,9.8,38.3C1471.5,225.2,1468.4,237.3,1462.4,248.6z
		 M1412.2,238.1c6.4-6.1,9.7-14.7,9.7-25.7c0-23.5-13.1-35.2-39.3-35.2h-38.3v70h38.3C1395.8,247.2,1405.7,244.2,1412.2,238.1z"/>
	<path class="st0" d="M1662,137.8v39h-64.2v201.8h-48.3V176.8h-64.2v-39H1662z"/>
	<path class="st0" d="M1727.7,365.2c-18.9-10.6-33.8-25.2-44.9-44c-11-18.7-16.6-40-16.6-63.7c0-23.5,5.5-44.6,16.6-63.3
		c11-18.7,26-33.4,44.9-44c18.9-10.6,39.6-15.9,62.1-15.9c22.8,0,43.5,5.3,62.3,15.9c18.7,10.6,33.6,25.2,44.5,44
		c10.9,18.7,16.4,39.8,16.4,63.3c0,23.7-5.5,44.9-16.4,63.7c-10.9,18.7-25.8,33.4-44.7,44c-18.9,10.6-39.6,15.9-62.1,15.9
		C1767.3,381.1,1746.6,375.8,1727.7,365.2z M1828.1,328.1c11-6.6,19.7-15.9,25.9-28.1c6.2-12.2,9.3-26.3,9.3-42.4
		c0-16.1-3.1-30.2-9.3-42.3s-14.8-21.3-25.9-27.8c-11-6.4-23.8-9.7-38.3-9.7s-27.3,3.2-38.5,9.7c-11.2,6.4-19.8,15.7-26,27.8
		s-9.3,26.2-9.3,42.3c0,16.1,3.1,30.2,9.3,42.4c6.2,12.2,14.9,21.6,26,28.1c11.2,6.6,24,9.8,38.5,9.8S1817.1,334.7,1828.1,328.1z"/>
	<path class="st0" d="M2155.2,378.6l-53.1-93.8h-22.8v93.8H2031V137.8h90.4c18.6,0,34.5,3.3,47.6,9.8c13.1,6.6,22.9,15.4,29.5,26.6
		c6.6,11.2,9.8,23.6,9.8,37.4c0,15.9-4.6,30.2-13.8,43c-9.2,12.8-22.9,21.6-41.1,26.4l57.6,97.6H2155.2z M2079.3,248.6h40.4
		c13.1,0,22.9-3.2,29.3-9.5c6.4-6.3,9.7-15.1,9.7-26.4c0-11-3.2-19.6-9.7-25.7c-6.4-6.1-16.2-9.1-29.3-9.1h-40.4V248.6z"/>
	<path class="st0" d="M2289.7,365.2c-18.9-10.6-33.8-25.2-44.9-44c-11-18.7-16.6-40-16.6-63.7c0-23.5,5.5-44.6,16.6-63.3
		c11-18.7,26-33.4,44.9-44c18.9-10.6,39.6-15.9,62.1-15.9c22.8,0,43.5,5.3,62.3,15.9c18.7,10.6,33.6,25.2,44.5,44
		c10.9,18.7,16.4,39.8,16.4,63.3c0,23.7-5.5,44.9-16.4,63.7c-10.9,18.7-25.8,33.4-44.7,44c-18.9,10.6-39.6,15.9-62.1,15.9
		C2329.3,381.1,2308.6,375.8,2289.7,365.2z M2390.1,328.1c11-6.6,19.7-15.9,25.9-28.1c6.2-12.2,9.3-26.3,9.3-42.4
		c0-16.1-3.1-30.2-9.3-42.3s-14.8-21.3-25.9-27.8c-11-6.4-23.8-9.7-38.3-9.7s-27.3,3.2-38.5,9.7c-11.2,6.4-19.8,15.7-26,27.8
		s-9.3,26.2-9.3,42.3c0,16.1,3.1,30.2,9.3,42.4c6.2,12.2,14.9,21.6,26,28.1c11.2,6.6,24,9.8,38.5,9.8S2379.1,334.7,2390.1,328.1z"/>
	<path class="st0" d="M2678.6,137.8l-81.4,157v83.8h-48.3v-83.8l-81.8-157h54.5l51.8,110.1l51.4-110.1H2678.6z"/>
	<path class="st0" d="M2818.8,332.8h-95.9l-15.9,45.9h-50.7l86.6-241.2h56.2l86.6,241.2h-51.1L2818.8,332.8z M2805.7,294.1
		l-34.8-100.7L2736,294.1H2805.7z"/>
	<path class="st0" d="M2956.1,340.3h79.3v38.3h-127.7V137.8h48.3V340.3z"/>
	<path class="st0" d="M3104.8,176.8v60.4h81.1v38.3h-81.1v63.8h91.4v39.3h-139.7V137.5h139.7v39.3H3104.8z"/>
</g>
</svg>
