<svg xmlns="http://www.w3.org/2000/svg" fill="none" viewBox="68 90 310.55 72">
<path d="M104 145.555C93.0353 145.555 84.265 136.784 84.265 125.82C84.265 114.855 93.0353 106.085 104 106.085V90C84.0813 90 68 106.081 68 126C68 145.919 84.0813 162 104 162C123.919 162 140 145.919 140 126H123.919C123.735 136.781 114.965 145.555 104 145.555Z" fill="#0068FF"/>
<path d="M123.735 106.081H104V125.816H123.735V106.081Z" fill="#17E6A1"/>
<path d="M180.733 121.608V133.481H199.001L198.865 133.805C195.759 141.256 188.541 146.069 180.475 146.069C169.491 146.069 160.557 137.131 160.557 126.15C160.557 115.169 169.494 106.231 180.475 106.231C186.818 106.231 192.686 109.211 196.443 114.27H210.998C206.119 101.713 194.035 93.3764 180.479 93.3764C162.407 93.3764 147.705 108.078 147.705 126.15C147.705 144.222 162.407 158.924 180.479 158.924C189.229 158.924 197.448 155.514 203.624 149.325C209.796 143.14 213.192 134.907 213.192 126.15C213.192 124.524 213.096 123.037 212.899 121.611H180.733V121.608ZM378.37 131.915C378.544 130.646 378.551 129.363 378.551 128.047C378.551 112.353 365.943 99.6319 350.249 99.6319C334.555 99.6319 321.834 112.353 321.834 128.047C321.834 143.741 334.555 156.462 350.249 156.462C362.523 156.462 372.963 148.671 376.934 137.769H364.106C361.04 142.131 355.987 144.99 350.249 144.99C342.223 144.99 335.517 139.403 333.764 131.911H366.734H378.37V131.915ZM334.712 121.287C337.324 115.292 343.292 111.098 350.249 111.098C357.206 111.098 363.174 115.292 365.786 121.287H334.715H334.712ZM264.582 105.042C259.753 101.255 253.678 98.9873 247.078 98.9873C231.411 98.9873 218.663 111.735 218.663 127.403C218.663 143.07 231.411 155.818 247.078 155.818C253.678 155.818 259.753 153.55 264.582 149.763V155.384H276.141V101.442H264.582V105.046V105.042ZM247.078 144.085C237.88 144.085 230.396 136.6 230.396 127.403C230.396 118.205 237.88 110.72 247.078 110.72C256.276 110.72 263.761 118.205 263.761 127.403C263.761 136.6 256.276 144.085 247.078 144.085ZM302.71 91.3291H290.095V101.442H284.177V113.008H290.095V139.072C290.095 148.32 297.62 155.845 306.868 155.845H317.422V143.46H307.098C304.677 143.46 302.71 141.49 302.71 139.072V113.008H317.428V101.442H302.71V91.3291Z" fill="#FFFFFF"/>
</svg>