<svg xmlns="http://www.w3.org/2000/svg" xmlns:xlink="http://www.w3.org/1999/xlink" version="1.0" id="katman_1" x="0px" y="0px" style="enable-background:new 0 0 800 600;" xml:space="preserve" viewBox="67.31 192.86 667.65 215.25">
<style type="text/css">
	.st0{fill:#1D1D1B;}
</style>
<path class="st0" d="M82.8,245.1c5.7,5.7,11.4,11.3,17.2,17.1c-7.7,9.9-10.7,21.1-8.1,33.5c1.7,8.5,6.1,15.7,12.6,21.4  c13.1,11.5,33.9,14.5,51.4,0.9c6.2,6.3,12.5,12.5,18.8,18.9c6.5-6.6,12.8-12.9,19.1-19.1c19.4,14.9,41.5,10.1,54-2.7  c13.1-13.4,16.2-35.1,2.6-52.6c5.7-5.7,11.4-11.4,17-17.1c22,33.6,23.9,91.8-17.1,132.3c-39.3,38.9-104.6,40.8-146.3,3.9  C60.5,343.2,58.7,283.1,82.8,245.1z"/>
<path class="st0" d="M90,234.7c41.5-55.8,128.5-55.9,170.3,0.4c-28.4,28.4-56.8,56.8-85,85C147,291.7,118.6,263.2,90,234.7z   M175.2,300.3c22-21.8,44-43.7,66.1-65.6c-36-37.8-98.9-36-132.1-0.4C131.1,256.2,153.1,278.2,175.2,300.3z"/>
<path class="st0" d="M241.8,270.8c8.5,10.8,7.3,27-2.8,36.9c-10,9.7-26.1,10.6-36.3,2.2C215.7,296.8,228.8,283.8,241.8,270.8z"/>
<path class="st0" d="M147.3,309.9c-10.4,8.4-26.6,7.3-36.5-2.6c-9.9-10-11-26.1-2.6-36.4C121.2,283.8,134.2,296.8,147.3,309.9z"/>
<path class="st0" d="M423.4,268.9c-5.1,4.3-10.2,8.7-15.5,13.2c-5.1-4.4-10.7-7.7-17.5-8.9c-14.5-2.4-27.1,6.4-29.4,21  c-1.2,7.6-0.5,14.9,3.2,21.7c7.7,14.3,24.4,15.5,36.7,9.3c0.7-0.3,1.3-1.4,1.3-2.1c0.2-3,0.1-6,0.1-9.3c-6.1,0-11.9,0-17.9,0  c0-6.4,0-12.3,0-18.7c12.9,0,25.8,0,39.1,0c0.1,0.8,0.3,1.8,0.3,2.8c0,12.2,0.1,24.4-0.1,36.7c0,1.5-0.7,3.6-1.9,4.3  c-16.7,11.3-45.6,14.9-64.5,2.4c-11.6-7.6-18-18.6-19.6-32.1c-1.9-16,0.9-30.8,12.1-43.2c6.9-7.6,15.7-11.8,25.7-13.3  c16.8-2.5,32.1,1.1,44.9,12.8c0.8,0.7,1.5,1.5,2.2,2.3C422.9,267.9,423.1,268.3,423.4,268.9z"/>
<path class="st0" d="M546.4,349.2c-17.7,0-30.4-8.9-34.1-25c-5.8-25.3,11.9-45.5,39-42.5c14.4,1.6,25,8.9,29,23.3  C586.9,329.6,570.8,349.9,546.4,349.2z M546.5,300.2c-8.3,0-14.2,6.1-14.2,14.9c-0.1,8.8,6.2,15.7,14.2,15.7c8,0,14.3-6.9,14.3-15.7  C560.6,306.4,554.8,300.2,546.5,300.2z"/>
<path class="st0" d="M458,283c0,2.3,0,4.4,0,5.6c5.2-2.3,10.3-5.6,15.8-6.6c14-2.6,25.9,4.1,26.7,19.6c0.8,15.3,0.2,30.7,0.2,46.6  c-5.8,0-12,0.1-18.3-0.2c-0.7,0-1.9-2.1-1.9-3.3c-0.2-10.9-0.1-21.8-0.3-32.7c-0.2-8.8-3-11.7-10.2-11.7c-7,0-11.7,4.7-11.9,12.3  c-0.2,10.8,0,21.5-0.1,32.3c0,0.9-0.1,1.8-0.2,3.2c-6.3,0-12.6,0.1-18.9-0.2c-0.7,0-1.8-2.2-1.9-3.4c-0.2-8.7-0.1-17.3-0.1-26  c0-10.4,0-20.8,0-31.1c0-1.4,0-2.8,0-4.4C444.2,283,450.8,283,458,283z"/>
<path class="st0" d="M723.8,303.8c-4.1-2-7.8-4.2-11.8-5.6c-2.6-0.9-6.4-1.6-7.6,1.8c-1.3,3.7,2.8,4.2,5,5.3c4.4,2,9.1,3.4,13.5,5.4  c8.8,4.1,12.6,10.1,12,18.4c-0.7,9.5-5.6,16-15,18.5c-13.8,3.7-26.7,1.6-38.4-8c3.3-4.7,6.4-9.2,9-12.9c5.7,2.1,11,4.2,16.3,6.1  c0.8,0.3,2,0.5,2.7,0.1c1.7-0.9,3.3-2.1,4.9-3.2c-1.3-1.3-2.4-3-4-3.7c-4.1-1.8-8.4-2.9-12.5-4.7c-10.6-4.6-14.9-11.8-13.6-22.6  c0.8-7,5-11.7,11.1-14.7c11.2-5.4,27.8-2.8,37.5,5.8C730,294.7,726.8,299.4,723.8,303.8z"/>
<path class="st0" d="M587.3,339.7c3.3-4.8,6.5-9.2,9.9-14c4.7,4,9.6,6.9,15.7,7.3c1.3,0.1,2.7,0.2,3.8-0.3c1.3-0.6,3.1-1.7,3.2-2.8  c0.2-1-1.3-2.8-2.5-3.3c-3.7-1.6-7.6-2.8-11.4-4.3c-6.8-2.6-12.9-6.3-15.3-13.7c-3.9-12,2.8-23.4,15.5-26.3  c11.8-2.7,22.6,0,32.6,7.3c-3.3,4.9-6.4,9.6-9.7,14.5c-2.4-1.5-4.5-2.9-6.7-4.1c-1.6-0.9-3.3-1.7-5.1-2c-2.8-0.4-6.5-1.4-7.5,2.2  c-0.9,3.2,2.7,4,5,4.9c4.2,1.8,8.6,3.3,12.7,5.1c10.4,4.6,13.7,10.2,12.6,21c-0.8,8-6.9,14.8-16,16.8  C610.9,351,598.5,349,587.3,339.7z"/>
<path class="st0" d="M671.7,347.9c-6.8,0-13.3,0-20.1,0c0-21.6,0-43.1,0-64.8c6.6,0,13.2,0,20.1,0  C671.7,304.5,671.7,326,671.7,347.9z"/>
<path class="st0" d="M661.7,250.5c7.6,0,13.1,5.1,13.1,12.2c-0.1,6.9-5.5,12.1-12.8,12.2c-7.5,0.1-13.1-5-13.1-12.1  C648.8,255.5,654,250.5,661.7,250.5z"/>
</svg>